<?xml version="1.0" encoding="utf-8"?>
<!-- Generator: Adobe Illustrator 19.0.0, SVG Export Plug-In . SVG Version: 6.00 Build 0)  -->
<svg version="1.1" id="Layer_1" xmlns="http://www.w3.org/2000/svg" xmlns:xlink="http://www.w3.org/1999/xlink" x="0px" y="0px"
	 viewBox="0 0 227.7 73.6" style="enable-background:new 0 0 227.7 73.6;" xml:space="preserve">
<style type="text/css">
	.st0{fill:#e57373;}
</style>
<path id="XMLID_189_" class="st0" d="M1,1.2c5.2-1.2,13-1.5,18.6-1v61.3c2.3,0.9,4.4,2.1,5.5,3.4l-1,7.8H1L0,65
	c1-1.3,3.1-2.5,5.5-3.4V12.4C3.2,11.6,1.3,10.4,0,9L1,1.2z"/>
<path id="XMLID_186_" class="st0" d="M69.9,67.2c0,0-4.9,6.3-18.2,6.3c-16.2,0-24.3-9-24.3-25.2c0-20.6,12.6-26.8,24.4-26.8
	c11.2,0,19.2,4.3,19.2,22c0,4.6-2.2,7.3-7.2,7.3H42c0.6,8.5,4.1,11.6,12.4,11.6c7.7,0,12.5-3.2,12.5-3.2L69.9,67.2z M42.1,42.4
	L58,41.8c1.1-6.2-1.7-10-7.1-10C45.9,31.9,43,34.5,42.1,42.4z"/>
<path id="XMLID_184_" class="st0" d="M110.2,35.1c-1.3-0.2-2.8-0.3-4.4-0.3c-4.1,0-8.6,0.9-10.6,2.9v23.1c4.4,0.8,9.2,2.4,11.2,4.2
	l-1,7.8H76.5l-1-7.8c1-1.3,3.1-2.5,5.5-3.4v-28c-2.3-0.8-4.2-2-5.5-3.4l1-7.8c5.2-1.2,11.7-1.5,17.3-1v6.3c3-3.5,8.2-6.2,13.2-6.2
	c1.3,0,2.5,0.1,3.4,0.5L110.2,35.1z"/>
<path id="XMLID_182_" class="st0" d="M115.6,22.4c5.2-1.2,11.7-1.5,17.3-1v5c3.4-2.8,9.7-4.8,14.7-4.8c13.2,0,17.8,5.5,17.8,20.6
	v19.3c2.3,0.9,4.4,2.1,5.5,3.4l-1,7.8h-23.2l-1-7.8c1-1.3,3.1-2.5,5.5-3.4V41.6c0-7.7-2.6-9.2-7.6-9.2c-3.9,0-7.2,1.5-9.6,3.2v25.9
	c2.3,0.9,4.4,2.1,5.5,3.4l-1,7.8h-23.2l-1-7.8c1-1.3,3.1-2.5,5.5-3.4v-28c-2.3-0.8-4.2-2-5.5-3.4L115.6,22.4z"/>
<path id="XMLID_180_" class="st0" d="M227.7,70.3c-4.3,2.3-10.2,3.2-15.2,3.2c-1.4-1-2.6-3.2-2.7-5c-3.7,2.7-10.1,5-16.7,5
	c-12.4,0-16.5-5.2-16.5-16.7V33.6c-2.3-0.8-4.2-2-5.5-3.4l1-7.8c5.2-1.2,13-1.5,18.6-1v32.1c0,7.7,2.3,9,7.3,9
	c3.3,0,7.7-1.3,10.2-3.2V33.6c-2.3-0.8-4.2-2-5.5-3.4l1-7.8c5.2-1.2,13-1.5,18.6-1v39.3c2,0.4,3.9,0.9,5.5,1.7V70.3z"/>
</svg>
